<svg width="29" height="28" viewBox="0 0 29 28" fill="none" xmlns="http://www.w3.org/2000/svg">
<path fill-rule="evenodd" clip-rule="evenodd" d="M11 14C13.2516 14 15.0833 12.1683 15.0833 9.91665C15.0833 7.66498 13.2516 5.83331 11 5.83331C8.74831 5.83331 6.91665 7.66498 6.91665 9.91665C6.91665 12.1683 8.74831 14 11 14ZM2.83331 20.125C2.83331 17.4066 8.26998 16.0416 11 16.0416C13.73 16.0416 19.1666 17.4066 19.1666 20.125V22.1666H2.83331V20.125ZM11 18.375C8.91165 18.375 6.54331 19.1566 5.56331 19.8333H16.4366C15.4566 19.1566 13.0883 18.375 11 18.375ZM12.75 9.91665C12.75 8.94831 11.9683 8.16665 11 8.16665C10.0316 8.16665 9.24998 8.94831 9.24998 9.91665C9.24998 10.885 10.0316 11.6666 11 11.6666C11.9683 11.6666 12.75 10.885 12.75 9.91665ZM19.2133 16.1116C20.5666 17.0916 21.5 18.3983 21.5 20.125V22.1666H26.1666V20.125C26.1666 17.7683 22.0833 16.4266 19.2133 16.1116ZM22.0833 9.91665C22.0833 12.1683 20.2516 14 18 14C17.37 14 16.7866 13.8483 16.25 13.5916C16.985 12.5533 17.4166 11.2816 17.4166 9.91665C17.4166 8.55165 16.985 7.27998 16.25 6.24165C16.7866 5.98498 17.37 5.83331 18 5.83331C20.2516 5.83331 22.0833 7.66498 22.0833 9.91665Z" fill="black" fill-opacity="0.54"/>
</svg>
